<svg xmlns="http://www.w3.org/2000/svg" xmlns:xlink="http://www.w3.org/1999/xlink" viewBox="0 0 344.47 339.89"><defs><style>.cls-1{fill:#a44ee4;}.cls-2{fill:#212269;}.cls-3{fill:#e6c029;}.cls-4{clip-path:url(#clip-path);}.cls-5{fill:#4b1f7e;}.cls-6{clip-path:url(#clip-path-2);}.cls-7{fill:#265fb2;}.cls-8{clip-path:url(#clip-path-3);}.cls-9{fill:#2f52c8;}.cls-10{clip-path:url(#clip-path-4);}.cls-11{fill:#c14f88;}.cls-12{fill:#dd5b12;}.cls-13{fill:#43afed;}</style><clipPath id="clip-path"><path id="_Compound_Clipping_Path_" data-name="&lt;Compound Clipping Path&gt;" d="M78.18,105.26,80.33,102c.74-1.1,1.44-2.22,2.22-3.27s1.62-2,2.4-3c.58-.75,1.11-1.55,1.66-2.33.31-.44.64-.87.94-1.32.51-.74,1-1.51,1.51-2.23.81-1.11,1.65-2.2,2.47-3.3.14-.19.25-.41.38-.62s.35-.65.56-1c.53-.73,1.09-1.44,1.62-2.16.33-.45.65-.92,1-1.37.75-1.06,1.55-2.09,2.23-3.19a1.83,1.83,0,0,1,3-.53c1.8,1.37,3.62,2.71,5.42,4.08s3.73,2.89,5.62,4.31c1.12.84,2.3,1.6,3.42,2.43s1.92,1.52,2.9,2.26c1.3,1,2.64,1.94,3.94,3s2.36,1.92,3.57,2.84c2.19,1.69,4.39,3.37,6.62,5,1,.74,2.07,1.39,3.08,2.13.43.31.74.8,1.17,1.11.91.64,1.87,1.22,2.8,1.83l.29.23c2.15,1.63,4.32,3.23,6.46,4.88.86.66,1.62,1.43,2.47,2.11,1.24,1,2.51,2,3.79,2.89,1.55,1.15,3.14,2.25,4.7,3.39.85.62,1.66,1.3,2.52,1.91.48.34,1,.59,1.54.9.16.1.26.29.42.4.6.44,1.24.83,1.82,1.3s.88.92,1.38,1.3c1,.8,2.13,1.53,3.2,2.29l.48.35a61,61,0,0,0,5.17,4c1.07.67,1.81,1.64,2.82,2.33s2.11,1.45,3.16,2.18l.12.09c1.07.88,2.11,1.81,3.22,2.64.92.7,1.93,1.29,2.9,1.93a1.53,1.53,0,0,1,.25.16c1,.8,1.94,1.65,3,2.41s2,1.37,3.06,2.06c.14.09.24.26.37.36l1.2.8a6,6,0,0,1,.64.49c.57.52,1,1.22,1.89,1.33a.32.32,0,0,1,.12.08c1.06.85,2.12,1.71,3.19,2.55,1.88,1.49,3.78,3,5.67,4.43l1.49,1.19c0-.43.06-.69.06-.94V70.77c0-3.75,0-7.51,0-11.27a2.58,2.58,0,0,1,1-2.17Q229.59,38.64,252,19.89a3.44,3.44,0,0,1,2.34-.86c4,0,8-.07,12-.05a125.07,125.07,0,0,1,16.19.82c10.59,1.44,20.4,4.83,28.86,11.55A40.59,40.59,0,0,1,325.89,55a49.78,49.78,0,0,1,1.2,11.61c0,3.26,0,6.52,0,9.79,0,5.16.07,10.33.08,15.49,0,3,0,6-.12,9-.38,8.34-2.51,16.13-7.5,23a26.55,26.55,0,0,1-17,10.61c-.28,0-.55.13-1,.23,1.75.49,3.33.87,4.86,1.37,11,3.6,18,11.07,21.11,22.18a52.94,52.94,0,0,1,1.93,14.49c0,13.74,0,27.48,0,41.23a70.1,70.1,0,0,1-.74,8,2.5,2.5,0,0,1-.88,1.38q-8.21,6.89-16.45,13.72-12.49,10.44-25,20.88c-2,1.72-4.44,2.2-7,2.42-6.76.58-13.53.44-20.29.44H215.32c-2.45,0-4.9.05-7.34.07-.35,0-.69,0-1-.06a.79.79,0,0,1-.8-.81,8.75,8.75,0,0,1,0-.89q0-21.76,0-43.53c0-3.68-.07-7.36,0-11a2.14,2.14,0,0,0-1.32-2.06,16.51,16.51,0,0,1-1.52-1.12L201.47,200a2,2,0,0,1-.24-.16c-1-.87-2.06-1.75-3.13-2.58-.55-.44-1.21-.74-1.78-1.17-.91-.7-1.78-1.45-2.67-2.17a11.37,11.37,0,0,0-2.44-1.83,9.37,9.37,0,0,1-2.26-1.7,18.65,18.65,0,0,0-2.4-1.45,2.2,2.2,0,0,1-.25-.17,44.28,44.28,0,0,0-4.13-3.51c-1.09-.73-2-1.67-3-2.46-1.27-1-2.61-1.87-3.89-2.82-.81-.6-1.55-1.27-2.36-1.85s-1.64-1.1-2.46-1.65a2.7,2.7,0,0,1-.31-.2c-1.17-.94-2.31-1.91-3.51-2.8-1-.74-2.05-1.38-3.07-2.07-.12-.08-.22-.2-.34-.28-.44-.3-.89-.57-1.31-.89a3.86,3.86,0,0,1-.84-.72,20,20,0,0,0-4.26-3.46c-.23-.16-.43-.34-.64-.51-1.13-.89-2.24-1.8-3.38-2.67-1.36-1-2.75-2-4.11-3s-2.86-2.23-4.33-3.28c-.81-.59-1.75-1-2.59-1.57-.48-.33-.82-.88-1.33-1.16-1.46-.82-2.42-2.18-3.68-3.21-1-.83-2.18-1.48-3.24-2.27s-2-1.62-3.05-2.41-1.78-1.35-2.68-2c-.51-.39-1-.8-1.54-1.14a14.31,14.31,0,0,1-2.71-2.09,12.91,12.91,0,0,0-2.38-1.53,5.85,5.85,0,0,1-.48-.34c-2-1.64-4-3.31-6-4.92-1.08-.85-2.27-1.56-3.38-2.39s-2-1.61-3-2.4A34.74,34.74,0,0,0,104,126c-1-.58-1.68-1.55-2.67-2.12-.68-.4-1.22-1.17-1.93-1.35-1-.26-1.29-1.2-2.07-1.53-1.36-.56-2.07-1.84-3.15-2.69s-2.39-1.64-3.54-2.51-2.14-1.79-3.26-2.62-2.09-1.4-3.13-2.11c-.59-.4-1.17-.8-1.72-1.24-1.47-1.22-2.93-2.46-4.39-3.69Zm168.45,83.88v35.14c0,1.25,0,1.28,1.29,1.28,7.41,0,14.82.05,22.24,0a31.06,31.06,0,0,0,6.16-.66c6.42-1.37,10.62-5.19,12-11.69a33.21,33.21,0,0,0,.65-6.69q.09-16.78,0-33.58a43.59,43.59,0,0,0-.44-5.82,16.08,16.08,0,0,0-12.46-13.78,36.64,36.64,0,0,0-9-.75c-6.37,0-12.75,0-19.12,0a1.6,1.6,0,0,0-.73,0,1.21,1.21,0,0,0-.6.6,2.71,2.71,0,0,0-.05,1Zm0-102.92v31.07c0,1.07.07,1.14,1.13,1.14q9.38,0,18.76,0a41.64,41.64,0,0,0,9-.74c6.59-1.43,10.89-5.79,11.89-12.46a53.9,53.9,0,0,0,.35-7.84q.06-12.56,0-25.13a30.71,30.71,0,0,0-.36-4.79,14.62,14.62,0,0,0-5.69-10A18.35,18.35,0,0,0,270.86,54c-7.76-.13-15.52-.05-23.28-.06h-.22a.62.62,0,0,0-.71.67c0,.3,0,.59,0,.89Z"/></clipPath><clipPath id="clip-path-2"><path id="_Clipping_Path_" data-name="&lt;Clipping Path&gt;" class="cls-1" d="M205.91,204.91,93.08,70.64,168.27,7.45,206.12,59.5c.12,32.41,0,97.22,0,97.22S206,188.84,205.91,204.91Z"/></clipPath><clipPath id="clip-path-3"><path id="_Clipping_Path_2" data-name="&lt;Clipping Path&gt;" class="cls-2" d="M143.41,183.17c.19,2.76.42,5.51.55,8.27.09,1.95,0,3.91.06,5.86.08,2.61.25,5.22.36,7.83.05,1.16,0,2.33.07,3.48,0,.37.11,1,.3,1a1.54,1.54,0,0,0,1.13-.26c2.85-1.83,5.67-3.7,8.5-5.57,2.31-1.53,4.6-3.09,6.92-4.62,1.49-1,3-1.94,4.51-2.93,1.34-.87,2.67-1.75,4-2.66a4.56,4.56,0,0,1,4.19.12c2.3,1.81,4.62,3.61,6.93,5.41l8.63,6.74q3.21,2.49,6.44,5l1.1.87A1.34,1.34,0,0,1,197,214c-2.72,2-5.41,4-8.13,5.92-2,1.44-4,2.85-6,4.29-2.52,1.82-5,3.67-7.53,5.48-2,1.41-4,2.76-5.91,4.16-2.38,1.71-4.74,3.43-7.11,5.15-1.75,1.27-3.47,2.57-5.23,3.84-2.32,1.68-4.67,3.34-7,5-2.13,1.53-4.25,3.08-6.38,4.62q-2.39,1.72-4.79,3.43c-1.91,1.36-3.84,2.71-5.76,4.07s-3.95,2.81-5.91,4.23c-1.17.85-2.31,1.74-3.48,2.59-.72.54-1.46,1.07-2.2,1.58a.47.47,0,0,1-.35.09,14.86,14.86,0,0,1-2-.59,1.17,1.17,0,0,1-.56-.78,6.89,6.89,0,0,1,0-1.7,3.73,3.73,0,0,0-.34-2.11,4.75,4.75,0,0,1-.13-2.33,4.19,4.19,0,0,0-.32-2.28,4.58,4.58,0,0,1-.23-2.1,5.32,5.32,0,0,0-.36-2.8,4.19,4.19,0,0,1-.13-2.1,3.82,3.82,0,0,0-.36-2.51,1.86,1.86,0,0,1-.16-.86c0-.57,0-1.14,0-1.71a5.71,5.71,0,0,0-.37-2.21,7.87,7.87,0,0,1-.2-2.63,3.33,3.33,0,0,0-.36-2.13c-.23-.32-.1-.91-.12-1.38a9.26,9.26,0,0,0-.41-3.48,9.4,9.4,0,0,1-.17-2.63c-.06-.65-.26-1.29-.33-1.94-.08-.88,0-1.77-.15-2.65-.08-.7-.28-1.37-.41-2.06a9,9,0,0,1-.15-1,13.07,13.07,0,0,0-.38-4,10.68,10.68,0,0,1-.11-2.79,10.8,10.8,0,0,0-.35-1.55,5.49,5.49,0,0,1-.18-.78c0-.32,0-.65,0-1a7.27,7.27,0,0,0-.38-3.19,4.09,4.09,0,0,1-.12-1.76,5.89,5.89,0,0,0-.36-2.9,3.71,3.71,0,0,1-.17-1.31,9.91,9.91,0,0,0-.39-3.57c-.26-.58,0-1.37-.11-2.05-.09-.85-.31-1.68-.4-2.52s-.07-1.77-.16-2.65c-.07-.67-.25-1.33-.36-2a13.22,13.22,0,0,1-.19-1.54,10.22,10.22,0,0,0-.39-3.5,8.81,8.81,0,0,1-.11-2.2c-.08-.75-.26-1.48-.37-2.23-.08-.51-.15-1-.18-1.54a8.87,8.87,0,0,0-.39-3.42,2.35,2.35,0,0,1,0-1.53c.22-.82,1-.89,1.73-1a17.47,17.47,0,0,1,1.78,0,17.18,17.18,0,0,0,4.08-.34c1.32-.38,2.84-.06,4.26-.12a10.46,10.46,0,0,0,1.71-.37,4.36,4.36,0,0,1,.93-.18c1.29,0,2.57,0,3.86.05a1.24,1.24,0,0,0,.58,0c1.36-.75,2.84-.45,4.29-.48a9.1,9.1,0,0,0,2.82-.35,8.23,8.23,0,0,1,2.86-.17,6.56,6.56,0,0,0,3.19-.35,2.86,2.86,0,0,1,1.67-.07,1.15,1.15,0,0,1,.59.86c.24,3.1.42,6.21.61,9.31Z"/></clipPath><clipPath id="clip-path-4"><path id="_Clipping_Path_3" data-name="&lt;Clipping Path&gt;" class="cls-3" d="M193.94,97.52l-7.37.55c-2.31.18-4.62.35-6.92.54s-4.56.4-6.84.61a6.94,6.94,0,0,0-.78.22,2.68,2.68,0,0,1-3.37-2.59c0-.46,0-.94,0-1.4-.09-.86-.23-1.7-.35-2.55,0-.3-.13-.58-.16-.88-.19-2-.32-4-.56-5.94s-.61-4.17-.9-6.26c-.07-.49-.09-1-.14-1.48-.18-1.88-.34-3.76-.56-5.64-.13-1.15-.36-2.29-.55-3.43-.07-.44-.32-.43-.63-.22l-6.54,4.43c-1.95,1.32-3.91,2.63-5.83,4-1.15.8-2.22,1.71-3.35,2.53-1.38,1-2.82,1.87-4.17,2.88s-2.59,2.25-4,3.16c-1.22.77-2.31,1.89-3.82,2.11a2.94,2.94,0,0,1-2.63-.48c-1.48-1.26-3.09-2.36-4.64-3.53l-3.94-2.95c-.77-.58-1.53-1.15-2.28-1.74-1.12-.88-2.21-1.8-3.34-2.66s-2-1.42-3-2.16-2.07-1.66-3.12-2.46c-1.32-1-2.64-2-4-2.91a1.65,1.65,0,0,1,.06-2.92c1-.63,1.84-1.38,2.79-2s2-1.27,3-1.92,1.78-1.22,2.66-1.84L122.24,58c1-.7,1.94-1.42,2.93-2.09s2-1.27,3-1.94,1.91-1.37,2.86-2L133.78,50,137,47.81c.86-.6,1.71-1.23,2.58-1.82,1.09-.74,2.21-1.44,3.3-2.19,2-1.34,3.9-2.7,5.86-4,1.16-.8,2.36-1.56,3.52-2.37s2.22-1.6,3.35-2.39l6-4.15c1.32-.92,2.63-1.86,4-2.76,2.34-1.58,4.69-3.13,7-4.7.83-.56,1.62-1.17,2.44-1.75l2.92-2c1.9-1.31,3.78-2.63,5.69-3.93,1-.67,2-1.29,3-2,.38-.27.68-.64,1.05-.92s.9-.38,1.24.19a1.85,1.85,0,0,1,.3.5c.27,1.31.46,2.64.79,3.94a16.91,16.91,0,0,1,.47,4,80.68,80.68,0,0,0,.9,10.06c.33,2.32.44,4.67.7,7s.54,4.5.8,6.75c.14,1.25.23,2.51.36,3.76q.51,4.59,1,9.19l1.05,9.25c.39,3.35.79,6.71,1.18,10.06.17,1.49.28,3,.47,4.48.26,2.1.61,4.19.84,6.3s.44,4.5.61,6.75c.11,1.39-.36,2-1.84,2.29a8.22,8.22,0,0,1-1.32.17c-.44,0-.89,0-1.33,0Z"/></clipPath></defs><title>Asset 22</title><g id="Layer_2" data-name="Layer 2"><g id="Layer_17" data-name="Layer 17"><path id="_Compound_Clipping_Path_2" data-name="&lt;Compound Clipping Path&gt;" d="M78.18,105.26,80.33,102c.74-1.1,1.44-2.22,2.22-3.27s1.62-2,2.4-3c.58-.75,1.11-1.55,1.66-2.33.31-.44.64-.87.94-1.32.51-.74,1-1.51,1.51-2.23.81-1.11,1.65-2.2,2.47-3.3.14-.19.25-.41.38-.62s.35-.65.56-1c.53-.73,1.09-1.44,1.62-2.16.33-.45.65-.92,1-1.37.75-1.06,1.55-2.09,2.23-3.19a1.83,1.83,0,0,1,3-.53c1.8,1.37,3.62,2.71,5.42,4.08s3.73,2.89,5.62,4.31c1.12.84,2.3,1.6,3.42,2.43s1.92,1.52,2.9,2.26c1.3,1,2.64,1.94,3.94,3s2.36,1.92,3.57,2.84c2.19,1.69,4.39,3.37,6.62,5,1,.74,2.07,1.39,3.08,2.13.43.31.74.8,1.17,1.11.91.64,1.87,1.22,2.8,1.83l.29.23c2.15,1.63,4.32,3.23,6.46,4.88.86.66,1.62,1.43,2.47,2.11,1.24,1,2.51,2,3.79,2.89,1.55,1.15,3.14,2.25,4.7,3.39.85.62,1.66,1.3,2.52,1.91.48.34,1,.59,1.54.9.16.1.26.29.42.4.6.44,1.24.83,1.82,1.3s.88.92,1.38,1.3c1,.8,2.13,1.53,3.2,2.29l.48.35a61,61,0,0,0,5.17,4c1.07.67,1.81,1.64,2.82,2.33s2.11,1.45,3.16,2.18l.12.09c1.07.88,2.11,1.81,3.22,2.64.92.7,1.93,1.29,2.9,1.93a1.53,1.53,0,0,1,.25.16c1,.8,1.94,1.65,3,2.41s2,1.37,3.06,2.06c.14.09.24.26.37.36l1.2.8a6,6,0,0,1,.64.49c.57.52,1,1.22,1.89,1.33a.32.32,0,0,1,.12.08c1.06.85,2.12,1.71,3.19,2.55,1.88,1.49,3.78,3,5.67,4.43l1.49,1.19c0-.43.06-.69.06-.94V70.77c0-3.75,0-7.51,0-11.27a2.58,2.58,0,0,1,1-2.17Q229.59,38.64,252,19.89a3.44,3.44,0,0,1,2.34-.86c4,0,8-.07,12-.05a125.07,125.07,0,0,1,16.19.82c10.59,1.44,20.4,4.83,28.86,11.55A40.59,40.59,0,0,1,325.89,55a49.78,49.78,0,0,1,1.2,11.61c0,3.26,0,6.52,0,9.79,0,5.16.07,10.33.08,15.49,0,3,0,6-.12,9-.38,8.34-2.51,16.13-7.5,23a26.55,26.55,0,0,1-17,10.61c-.28,0-.55.13-1,.23,1.75.49,3.33.87,4.86,1.37,11,3.6,18,11.07,21.11,22.18a52.94,52.94,0,0,1,1.93,14.49c0,13.74,0,27.48,0,41.23a70.1,70.1,0,0,1-.74,8,2.5,2.5,0,0,1-.88,1.38q-8.21,6.89-16.45,13.72-12.49,10.44-25,20.88c-2,1.72-4.44,2.2-7,2.42-6.76.58-13.53.44-20.29.44H215.32c-2.45,0-4.9.05-7.34.07-.35,0-.69,0-1-.06a.79.79,0,0,1-.8-.81,8.75,8.75,0,0,1,0-.89q0-21.76,0-43.53c0-3.68-.07-7.36,0-11a2.14,2.14,0,0,0-1.32-2.06,16.51,16.51,0,0,1-1.52-1.12L201.47,200a2,2,0,0,1-.24-.16c-1-.87-2.06-1.75-3.13-2.58-.55-.44-1.21-.74-1.78-1.17-.91-.7-1.78-1.45-2.67-2.17a11.37,11.37,0,0,0-2.44-1.83,9.37,9.37,0,0,1-2.26-1.7,18.65,18.65,0,0,0-2.4-1.45,2.2,2.2,0,0,1-.25-.17,44.28,44.28,0,0,0-4.13-3.51c-1.09-.73-2-1.67-3-2.46-1.27-1-2.61-1.87-3.89-2.82-.81-.6-1.55-1.27-2.36-1.85s-1.64-1.1-2.46-1.65a2.7,2.7,0,0,1-.31-.2c-1.17-.94-2.31-1.91-3.51-2.8-1-.74-2.05-1.38-3.07-2.07-.12-.08-.22-.2-.34-.28-.44-.3-.89-.57-1.31-.89a3.86,3.86,0,0,1-.84-.72,20,20,0,0,0-4.26-3.46c-.23-.16-.43-.34-.64-.51-1.13-.89-2.24-1.8-3.38-2.67-1.36-1-2.75-2-4.11-3s-2.86-2.23-4.33-3.28c-.81-.59-1.75-1-2.59-1.57-.48-.33-.82-.88-1.33-1.16-1.46-.82-2.42-2.18-3.68-3.21-1-.83-2.18-1.48-3.24-2.27s-2-1.62-3.05-2.41-1.78-1.35-2.68-2c-.51-.39-1-.8-1.54-1.14a14.31,14.31,0,0,1-2.71-2.09,12.91,12.91,0,0,0-2.38-1.53,5.85,5.85,0,0,1-.48-.34c-2-1.64-4-3.31-6-4.92-1.08-.85-2.27-1.56-3.38-2.39s-2-1.61-3-2.4A34.74,34.74,0,0,0,104,126c-1-.58-1.68-1.55-2.67-2.12-.68-.4-1.22-1.17-1.93-1.35-1-.26-1.29-1.2-2.07-1.53-1.36-.56-2.07-1.84-3.15-2.69s-2.39-1.64-3.54-2.51-2.14-1.79-3.26-2.62-2.09-1.4-3.13-2.11c-.59-.4-1.17-.8-1.72-1.24-1.47-1.22-2.93-2.46-4.39-3.69Zm168.45,83.88v35.14c0,1.25,0,1.28,1.29,1.28,7.41,0,14.82.05,22.24,0a31.06,31.06,0,0,0,6.16-.66c6.42-1.37,10.62-5.19,12-11.69a33.21,33.21,0,0,0,.65-6.69q.09-16.78,0-33.58a43.59,43.59,0,0,0-.44-5.82,16.08,16.08,0,0,0-12.46-13.78,36.64,36.64,0,0,0-9-.75c-6.37,0-12.75,0-19.12,0a1.6,1.6,0,0,0-.73,0,1.21,1.21,0,0,0-.6.6,2.71,2.71,0,0,0-.05,1Zm0-102.92v31.07c0,1.07.07,1.14,1.13,1.14q9.38,0,18.76,0a41.64,41.64,0,0,0,9-.74c6.59-1.43,10.89-5.79,11.89-12.46a53.9,53.9,0,0,0,.35-7.84q.06-12.56,0-25.13a30.71,30.71,0,0,0-.36-4.79,14.62,14.62,0,0,0-5.69-10A18.35,18.35,0,0,0,270.86,54c-7.76-.13-15.52-.05-23.28-.06h-.22a.62.62,0,0,0-.71.67c0,.3,0,.59,0,.89Z"/><g class="cls-4"><rect class="cls-5" x="79.02" y="76.78" width="126.98" height="128.77"/><path id="_Clipping_Path_4" data-name="&lt;Clipping Path&gt;" class="cls-1" d="M205.91,204.91,93.08,70.64,168.27,7.45,206.12,59.5c.12,32.41,0,97.22,0,97.22S206,188.84,205.91,204.91Z"/><g class="cls-6"><rect class="cls-7" x="160.86" y="85.73" width="146.87" height="103.32" transform="matrix(0.5, -0.87, 0.87, 0.5, -1.83, 271.6)"/></g></g><path d="M78.18,283.53c.21-.64.73-.71,1.3-.71h8.15c1,0,1.27.22,1.27,1.25q0,10.5,0,21c0,1.18.1,1.28,1.25,1.28h24.62c1.13,0,1.2-.07,1.2-1.23q0-10.46,0-20.91c0-1.23.26-1.39,1.5-1.37q3.85.07,7.71,0c1.11,0,1.38.14,1.38,1.26v53.15c0,1.15-.19,1.3-1.34,1.3-2.67,0-5.34,0-8,0-1,0-1.24-.21-1.24-1.19q0-10,0-20c0-1.13,0-1.18-1.16-1.18H90c-1.09,0-1.15.07-1.15,1.13q0,9.9,0,19.8c0,1.29-.24,1.48-1.51,1.47-2.6,0-5.19,0-7.78,0-.62,0-1.19-.05-1.43-.75V330a7.11,7.11,0,0,0,.1-.79v-37a8.46,8.46,0,0,0-.1-.88Z"/><path d="M317.84,339.89c-1.44-.19-2.89-.31-4.31-.57-5.86-1-10.9-3.5-14.37-8.54-.82-1.19-1.44-2.52-2.15-3.79-.32-.6-.15-1,.46-1.32q3.69-1.89,7.37-3.81c.5-.27.82-.21,1.07.31,2.11,4.47,5.87,6.7,10.53,7.68a21.44,21.44,0,0,0,12-.71c2.58-.94,4.51-2.53,5.21-5.32a6.1,6.1,0,0,0-2.42-6.67,15.9,15.9,0,0,0-6.87-2.59c-3.86-.65-7.76-1.15-11.59-2a18.82,18.82,0,0,1-9.35-4.56,13.56,13.56,0,0,1-4.37-11.43c.63-7,4.65-11.42,11.08-13.84a30.72,30.72,0,0,1,12.36-1.82,31.15,31.15,0,0,1,10.2,2,18.31,18.31,0,0,1,9.47,8c.57,1,.51,1.17-.52,1.7-2.17,1.11-4.35,2.22-6.51,3.37a1,1,0,0,1-1.48-.32,14.51,14.51,0,0,0-9.17-5.12,17.71,17.71,0,0,0-10.4.9,6.64,6.64,0,0,0-4.27,4.68,4.89,4.89,0,0,0,2.21,5.51,16.2,16.2,0,0,0,6.26,2.15c3.89.64,7.81,1.17,11.67,2a20.8,20.8,0,0,1,9.41,4.29,14.1,14.1,0,0,1,5,10.43,19,19,0,0,1-1.23,8.35A15.66,15.66,0,0,1,335,337.1a28.72,28.72,0,0,1-10.33,2.69,2.13,2.13,0,0,0-.42.1Z"/><path d="M219.51,339.89c-1.32-.14-2.64-.21-3.95-.42-7.34-1.17-13.78-4-18.41-10.11a29.22,29.22,0,0,1-5.21-12.62,30.58,30.58,0,0,1,4.7-23.33,25.39,25.39,0,0,1,16.27-10.89,30.75,30.75,0,0,1,18.63,1.11,28.55,28.55,0,0,1,9.35,6c.19.19.35.4.4.45-1.19,1.27-2.3,2.5-3.44,3.68-.86.89-1.77,1.73-2.65,2.59-.73.71-.83.72-1.59.08-7.09-6-18.12-6.21-25.14-.47a17.77,17.77,0,0,0-6,10.44,20.59,20.59,0,0,0,3,16.09,15,15,0,0,0,8.79,6.28c5.19,1.46,10.32,1.43,15.24-1a34.64,34.64,0,0,0,4.81-3.16c.55-.39.87-.46,1.36.05,2,2,4,4,5.95,6,.7.72.69.78,0,1.45a28.52,28.52,0,0,1-17.42,7.5l-2.64.25Z"/><path id="_Clipping_Path_5" data-name="&lt;Clipping Path&gt;" class="cls-2" d="M143.41,183.17c.19,2.76.42,5.51.55,8.27.09,1.95,0,3.91.06,5.86.08,2.61.25,5.22.36,7.83.05,1.16,0,2.33.07,3.48,0,.37.11,1,.3,1a1.54,1.54,0,0,0,1.13-.26c2.85-1.83,5.67-3.7,8.5-5.57,2.31-1.53,4.6-3.09,6.92-4.62,1.49-1,3-1.94,4.51-2.93,1.34-.87,2.67-1.75,4-2.66a4.56,4.56,0,0,1,4.19.12c2.3,1.81,4.62,3.61,6.93,5.41l8.63,6.74q3.21,2.49,6.44,5l1.1.87A1.34,1.34,0,0,1,197,214c-2.72,2-5.41,4-8.13,5.92-2,1.44-4,2.85-6,4.29-2.52,1.82-5,3.67-7.53,5.48-2,1.41-4,2.76-5.91,4.16-2.38,1.71-4.74,3.43-7.11,5.15-1.75,1.27-3.47,2.57-5.23,3.84-2.32,1.68-4.67,3.34-7,5-2.13,1.53-4.25,3.08-6.38,4.62q-2.39,1.72-4.79,3.43c-1.91,1.36-3.84,2.71-5.76,4.07s-3.95,2.81-5.91,4.23c-1.17.85-2.31,1.74-3.48,2.59-.72.54-1.46,1.07-2.2,1.58a.47.47,0,0,1-.35.09,14.86,14.86,0,0,1-2-.59,1.17,1.17,0,0,1-.56-.78,6.89,6.89,0,0,1,0-1.7,3.73,3.73,0,0,0-.34-2.11,4.75,4.75,0,0,1-.13-2.33,4.19,4.19,0,0,0-.32-2.28,4.58,4.58,0,0,1-.23-2.1,5.32,5.32,0,0,0-.36-2.8,4.19,4.19,0,0,1-.13-2.1,3.82,3.82,0,0,0-.36-2.51,1.86,1.86,0,0,1-.16-.86c0-.57,0-1.14,0-1.71a5.71,5.71,0,0,0-.37-2.21,7.87,7.87,0,0,1-.2-2.63,3.33,3.33,0,0,0-.36-2.13c-.23-.32-.1-.91-.12-1.38a9.26,9.26,0,0,0-.41-3.48,9.4,9.4,0,0,1-.17-2.63c-.06-.65-.26-1.29-.33-1.94-.08-.88,0-1.77-.15-2.65-.08-.7-.28-1.37-.41-2.06a9,9,0,0,1-.15-1,13.07,13.07,0,0,0-.38-4,10.68,10.68,0,0,1-.11-2.79,10.8,10.8,0,0,0-.35-1.55,5.49,5.49,0,0,1-.18-.78c0-.32,0-.65,0-1a7.27,7.27,0,0,0-.38-3.19,4.09,4.09,0,0,1-.12-1.76,5.89,5.89,0,0,0-.36-2.9,3.71,3.71,0,0,1-.17-1.31,9.91,9.91,0,0,0-.39-3.57c-.26-.58,0-1.37-.11-2.05-.09-.85-.31-1.68-.4-2.52s-.07-1.77-.16-2.65c-.07-.67-.25-1.33-.36-2a13.22,13.22,0,0,1-.19-1.54,10.22,10.22,0,0,0-.39-3.5,8.81,8.81,0,0,1-.11-2.2c-.08-.75-.26-1.48-.37-2.23-.08-.51-.15-1-.18-1.54a8.87,8.87,0,0,0-.39-3.42,2.35,2.35,0,0,1,0-1.53c.22-.82,1-.89,1.73-1a17.47,17.47,0,0,1,1.78,0,17.18,17.18,0,0,0,4.08-.34c1.32-.38,2.84-.06,4.26-.12a10.46,10.46,0,0,0,1.71-.37,4.36,4.36,0,0,1,.93-.18c1.29,0,2.57,0,3.86.05a1.24,1.24,0,0,0,.58,0c1.36-.75,2.84-.45,4.29-.48a9.1,9.1,0,0,0,2.82-.35,8.23,8.23,0,0,1,2.86-.17,6.56,6.56,0,0,0,3.19-.35,2.86,2.86,0,0,1,1.67-.07,1.15,1.15,0,0,1,.59.86c.24,3.1.42,6.21.61,9.31Z"/><g class="cls-8"><rect class="cls-9" x="10.72" y="152.56" width="122.06" height="107.52" transform="translate(49.34 -10.97) rotate(13.29)"/></g><path id="_Clipping_Path_6" data-name="&lt;Clipping Path&gt;" class="cls-3" d="M193.94,97.52l-7.37.55c-2.31.18-4.62.35-6.92.54s-4.56.4-6.84.61a6.94,6.94,0,0,0-.78.22,2.68,2.68,0,0,1-3.37-2.59c0-.46,0-.94,0-1.4-.09-.86-.23-1.7-.35-2.55,0-.3-.13-.58-.16-.88-.19-2-.32-4-.56-5.94s-.61-4.17-.9-6.26c-.07-.49-.09-1-.14-1.48-.18-1.88-.34-3.76-.56-5.64-.13-1.15-.36-2.29-.55-3.43-.07-.44-.32-.43-.63-.22l-6.54,4.43c-1.95,1.32-3.91,2.63-5.83,4-1.15.8-2.22,1.71-3.35,2.53-1.38,1-2.82,1.87-4.17,2.88s-2.59,2.25-4,3.16c-1.22.77-2.31,1.89-3.82,2.11a2.94,2.94,0,0,1-2.63-.48c-1.48-1.26-3.09-2.36-4.64-3.53l-3.94-2.95c-.77-.58-1.53-1.15-2.28-1.74-1.12-.88-2.21-1.8-3.34-2.66s-2-1.42-3-2.16-2.07-1.66-3.12-2.46c-1.32-1-2.64-2-4-2.91a1.65,1.65,0,0,1,.06-2.92c1-.63,1.84-1.38,2.79-2s2-1.27,3-1.92,1.78-1.22,2.66-1.84L122.24,58c1-.7,1.94-1.42,2.93-2.09s2-1.27,3-1.94,1.91-1.37,2.86-2L133.78,50,137,47.81c.86-.6,1.71-1.23,2.58-1.82,1.09-.74,2.21-1.44,3.3-2.19,2-1.34,3.9-2.7,5.86-4,1.16-.8,2.36-1.56,3.52-2.37s2.22-1.6,3.35-2.39l6-4.15c1.32-.92,2.63-1.86,4-2.76,2.34-1.58,4.69-3.13,7-4.7.83-.56,1.62-1.17,2.44-1.75l2.92-2c1.9-1.31,3.78-2.63,5.69-3.93,1-.67,2-1.29,3-2,.38-.27.68-.64,1.05-.92s.9-.38,1.24.19a1.85,1.85,0,0,1,.3.5c.27,1.31.46,2.64.79,3.94a16.91,16.91,0,0,1,.47,4,80.68,80.68,0,0,0,.9,10.06c.33,2.32.44,4.67.7,7s.54,4.5.8,6.75c.14,1.25.23,2.51.36,3.76q.51,4.59,1,9.19l1.05,9.25c.39,3.35.79,6.71,1.18,10.06.17,1.49.28,3,.47,4.48.26,2.1.61,4.19.84,6.3s.44,4.5.61,6.75c.11,1.39-.36,2-1.84,2.29a8.22,8.22,0,0,1-1.32.17c-.44,0-.89,0-1.33,0Z"/><g class="cls-10"><rect class="cls-11" x="101.98" y="53.11" width="67.1" height="42.02" transform="translate(67.02 -64.33) rotate(35)"/><rect class="cls-12" x="151.23" y="23.21" width="120.65" height="125.97" transform="translate(87.69 -105.75) rotate(35)"/></g><path d="M130.5,338.45c.13-.34.21-.59.32-.83q12-26.88,24-53.76a1.84,1.84,0,0,1,1.93-1.25q4.48.06,9,0a1.74,1.74,0,0,1,1.81,1.18q11.94,26.76,23.91,53.49c.48,1.08.33,1.27-.86,1.26-3,0-6.08,0-9.12,0a1.53,1.53,0,0,1-1.64-1c-1.23-2.83-2.55-5.63-3.79-8.45a1.33,1.33,0,0,0-1.41-.91H147.73a1.35,1.35,0,0,0-1.41.92c-1.25,2.83-2.55,5.62-3.8,8.44a1.57,1.57,0,0,1-1.59,1.07c-3.14,0-6.28,0-9.42,0C131.2,338.52,130.89,338.48,130.5,338.45ZM171.27,318c-3.36-7.76-6.68-15.41-10.07-23.22L151.14,318Z"/><path d="M258.84,305.76q2.06-2.28,4.1-4.57,7.9-8.83,15.81-17.69a2.46,2.46,0,0,1,2-.89c3.78,0,7.56,0,11.34,0,.19,0,.53.14.54.23a1,1,0,0,1-.23.63q-7,7.63-14.1,15.24l-9.42,10.16c-.7.75-.69.88,0,1.64L294,336.87a1.27,1.27,0,0,1,.24.28c.16.36.3.73.45,1.09a4.09,4.09,0,0,1-1.05.28c-3.49,0-7,0-10.46,0a3,3,0,0,1-2.43-1q-10.56-11.25-21.13-22.46c-.25-.27-.46-.58-.68-.87l-.25.12a5.93,5.93,0,0,0-.07.59q0,11.12,0,22.24c0,1.1-.29,1.37-1.42,1.36-2.59,0-5.19,0-7.78,0-1.24,0-1.51-.21-1.51-1.42q0-25.51,0-51c0-.84,0-1.68,0-2.52s.26-1,1-1c1.34,0,2.67,0,4,0,1.54,0,3.07,0,4.6,0,1,0,1.14.1,1.14,1.14q0,10.53,0,21.06v.87Z"/><polygon class="cls-13" points="205.99 157.37 205.99 202.48 225.15 173.44 205.99 157.37"/></g></g></svg>